# xmcd
#
# Track frame offsets: 
#        150
#        20325
#        51963
#        69430
#        87166
#        103654
#        121572
#        145519
#        166370
#        185720
#
# Disc length: 2725 seconds
#
# Revision: 0
# Processed by: cddbd v1.5.2PL0 Copyright (c) Steve Scherf et al.
# Submitted via: ExactAudioCopy v0.99pb3
#
DISCID=7c0aa30a
DTITLE=Dorian Spencer - Garden
DYEAR=2005
DGENRE=Blues
TTITLE0=Being A Fool
TTITLE1=Garden
TTITLE2=Stay Awhile
TTITLE3=Drip Drop
TTITLE4=Human Legacy
TTITLE5=New Mexico
TTITLE6=Pretending It's Not Happening
TTITLE7=New York Winter
TTITLE8=Falling In Love
TTITLE9=Who, What, Where?
EXTD=
EXTT0=
EXTT1=
EXTT2=
EXTT3=
EXTT4=
EXTT5=
EXTT6=
EXTT7=
EXTT8=
EXTT9=
PLAYORDER=
